<svg width="622" height="649" viewBox="0 0 622 649" fill="none" xmlns="http://www.w3.org/2000/svg">
<path d="M496.797 185C496.797 287.175 413.972 370 311.797 370C209.622 370 126.797 287.175 126.797 185C126.797 82.8248 209.622 0 311.797 0C413.972 0 496.797 82.8248 496.797 185Z" fill="url(#paint0_linear_3651_365)"/>
<path d="M234.437 244.616L400.822 200.094L457.724 246.072L213.57 311.4L234.437 244.616Z" fill="white"/>
<path d="M234.437 244.616L400.822 200.094L457.724 246.072L213.57 311.4L234.437 244.616Z" fill="url(#paint1_linear_3651_365)"/>
<path d="M271.437 39.9453L213.57 311.401L280.553 293.476L304.791 164.612L271.437 39.9453Z" fill="white"/>
<path d="M458.253 247.896L379.366 160.72L271.445 39.9453L274.31 118.404L304.799 164.612L376.317 248.019L391.148 265.852L458.253 247.896Z" fill="white"/>
<path d="M565.818 648.155C555.565 648.155 546.052 646.421 537.281 642.955C528.634 639.355 521.098 634.288 514.675 627.755C508.374 621.221 503.433 613.555 499.85 604.755C496.268 595.821 494.477 586.021 494.477 575.355C494.477 564.688 496.268 554.955 499.85 546.155C503.433 537.221 508.374 529.488 514.675 522.955C521.098 516.421 528.634 511.421 537.281 507.955C546.052 504.355 555.565 502.555 565.818 502.555C577.801 502.555 588.487 504.821 597.875 509.355C607.388 513.888 615.294 520.421 621.594 528.955L598.246 551.755C594.046 546.421 589.413 542.355 584.348 539.555C579.407 536.755 573.848 535.355 567.671 535.355C562.359 535.355 557.479 536.288 553.032 538.155C548.585 540.021 544.755 542.755 541.543 546.355C538.455 549.821 535.984 554.021 534.131 558.955C532.402 563.888 531.537 569.355 531.537 575.355C531.537 581.355 532.402 586.821 534.131 591.755C535.984 596.688 538.455 600.955 541.543 604.555C544.755 608.021 548.585 610.688 553.032 612.555C557.479 614.421 562.359 615.355 567.671 615.355C573.848 615.355 579.407 613.955 584.348 611.155C589.413 608.355 594.046 604.288 598.246 598.955L621.594 621.755C615.294 630.155 607.388 636.688 597.875 641.355C588.487 645.888 577.801 648.155 565.818 648.155Z" fill="black"/>
<path d="M438.359 645.352V505.352H475.049V645.352H438.359Z" fill="black"/>
<path d="M339.038 645.352L283.633 505.352H323.288L369.984 626.552H346.636L394.444 505.352H430.763L375.172 645.352H339.038Z" fill="black"/>
<path d="M162.031 645.352V505.352H221.328C233.187 505.352 243.379 507.418 251.903 511.552C260.55 515.685 267.221 521.685 271.916 529.552C276.61 537.285 278.957 546.485 278.957 557.152C278.957 567.685 276.61 576.818 271.916 584.552C267.221 592.152 260.55 598.018 251.903 602.152C243.379 606.152 233.187 608.152 221.328 608.152H182.415L198.721 591.552V645.352H162.031ZM242.267 645.352L210.025 594.352H249.123L281.551 645.352H242.267ZM198.721 595.752L182.415 577.552H219.104C226.764 577.552 232.446 575.752 236.152 572.152C239.982 568.552 241.897 563.552 241.897 557.152C241.897 550.618 239.982 545.552 236.152 541.952C232.446 538.352 226.764 536.552 219.104 536.552H182.415L198.721 518.352V595.752Z" fill="black"/>
<path d="M0.796875 645.352L58.0554 505.352H94.1894L151.633 645.352H113.461L68.6176 524.752H83.0712L38.228 645.352H0.796875ZM32.113 618.152L41.5634 588.952H104.937L114.387 618.152H32.113Z" fill="black"/>
<path d="M502.788 465.352V424.052H486.664V416.352H527.947V424.052H511.823V465.352H502.788Z" fill="black"/>
<path d="M458.219 465.352V416.352H467.254V465.352H458.219Z" fill="black"/>
<path d="M379.704 465.7C376.09 465.7 372.731 465.093 369.627 463.88C366.569 462.62 363.881 460.87 361.565 458.63C359.294 456.343 357.534 453.707 356.283 450.72C355.032 447.687 354.406 444.397 354.406 440.85C354.406 437.303 355.032 434.037 356.283 431.05C357.534 428.017 359.294 425.38 361.565 423.14C363.881 420.853 366.569 419.103 369.627 417.89C372.731 416.63 376.09 416 379.704 416C383.318 416 386.654 416.63 389.712 417.89C392.816 419.103 395.504 420.83 397.774 423.07C400.044 425.31 401.805 427.947 403.056 430.98C404.353 433.967 405.002 437.257 405.002 440.85C405.002 444.443 404.353 447.757 403.056 450.79C401.805 453.777 400.044 456.39 397.774 458.63C395.504 460.87 392.816 462.62 389.712 463.88C386.654 465.093 383.318 465.7 379.704 465.7ZM379.704 462.41C382.808 462.41 385.681 461.873 388.322 460.8C390.963 459.727 393.257 458.21 395.203 456.25C397.149 454.29 398.654 452.003 399.72 449.39C400.832 446.777 401.388 443.93 401.388 440.85C401.388 437.723 400.832 434.877 399.72 432.31C398.654 429.697 397.149 427.41 395.203 425.45C393.257 423.49 390.963 421.973 388.322 420.9C385.681 419.827 382.808 419.29 379.704 419.29C376.6 419.29 373.727 419.827 371.086 420.9C368.445 421.973 366.129 423.49 364.136 425.45C362.19 427.41 360.661 429.697 359.549 432.31C358.484 434.877 357.951 437.723 357.951 440.85C357.951 443.93 358.484 446.777 359.549 449.39C360.661 452.003 362.19 454.29 364.136 456.25C366.129 458.21 368.445 459.727 371.086 460.8C373.727 461.873 376.6 462.41 379.704 462.41Z" fill="black"/>
<path d="M296.867 465.352V416.352H314.312C318.389 416.352 321.887 417.005 324.806 418.312C327.725 419.618 329.972 421.508 331.548 423.982C333.123 426.408 333.911 429.372 333.911 432.872C333.911 436.278 333.123 439.218 331.548 441.692C329.972 444.165 327.725 446.055 324.806 447.362C321.887 448.668 318.389 449.322 314.312 449.322H298.813L300.412 447.642V465.352H296.867ZM300.412 447.852L298.813 446.102H314.312C319.547 446.102 323.509 444.958 326.196 442.672C328.93 440.338 330.297 437.072 330.297 432.872C330.297 428.625 328.93 425.358 326.196 423.072C323.509 420.738 319.547 419.572 314.312 419.572H298.813L300.412 417.822V447.852Z" fill="black"/>
<path d="M248.288 465.702C242.265 465.702 237.516 463.928 234.041 460.382C230.566 456.835 228.828 451.562 228.828 444.562V416.352H232.373V444.422C232.373 450.535 233.763 455.062 236.543 458.002C239.323 460.942 243.261 462.412 248.358 462.412C253.408 462.412 257.323 460.942 260.103 458.002C262.883 455.062 264.273 450.535 264.273 444.422V416.352H267.817V444.562C267.817 451.562 266.08 456.835 262.605 460.382C259.13 463.928 254.358 465.702 248.288 465.702Z" fill="black"/>
<path d="M166.719 465.352V416.352H184.163C188.24 416.352 191.739 417.005 194.658 418.312C197.577 419.618 199.824 421.508 201.399 423.982C202.974 426.408 203.762 429.372 203.762 432.872C203.762 436.278 202.974 439.218 201.399 441.692C199.824 444.118 197.577 446.008 194.658 447.362C191.739 448.668 188.24 449.322 184.163 449.322H168.665L170.263 447.642V465.352H166.719ZM200.496 465.352L187.847 447.572H191.878L204.527 465.352H200.496ZM170.263 447.852L168.665 446.172H184.163C189.399 446.172 193.36 445.005 196.048 442.672C198.781 440.338 200.148 437.072 200.148 432.872C200.148 428.625 198.781 425.358 196.048 423.072C193.36 420.738 189.399 419.572 184.163 419.572H168.665L170.263 417.822V447.852Z" fill="black"/>
<path d="M121.234 465.7C117.573 465.7 114.191 465.093 111.087 463.88C107.982 462.62 105.272 460.87 102.955 458.63C100.685 456.39 98.9244 453.777 97.6734 450.79C96.4224 447.757 95.7969 444.443 95.7969 440.85C95.7969 437.257 96.4224 433.967 97.6734 430.98C98.9244 427.947 100.708 425.31 103.025 423.07C105.341 420.83 108.029 419.103 111.087 417.89C114.191 416.63 117.597 416 121.303 416C124.825 416 128.091 416.56 131.103 417.68C134.114 418.8 136.686 420.48 138.817 422.72L136.593 425.1C134.462 423 132.122 421.507 129.574 420.62C127.072 419.733 124.338 419.29 121.373 419.29C118.222 419.29 115.303 419.827 112.616 420.9C109.928 421.973 107.589 423.49 105.596 425.45C103.604 427.41 102.052 429.697 100.94 432.31C99.8742 434.923 99.3414 437.77 99.3414 440.85C99.3414 443.93 99.8742 446.777 100.94 449.39C102.052 452.003 103.604 454.29 105.596 456.25C107.589 458.21 109.928 459.727 112.616 460.8C115.303 461.873 118.222 462.41 121.373 462.41C124.245 462.41 126.956 461.967 129.504 461.08C132.099 460.193 134.462 458.723 136.593 456.67L138.609 459.4C136.431 461.5 133.813 463.087 130.755 464.16C127.744 465.187 124.57 465.7 121.234 465.7ZM135.203 459.05V441.06H138.609V459.4L135.203 459.05Z" fill="black"/>
<defs>
<linearGradient id="paint0_linear_3651_365" x1="126.797" y1="185" x2="472.406" y2="185" gradientUnits="userSpaceOnUse">
<stop stop-color="#2DC3FD"/>
<stop offset="1" stop-color="#3F57EF"/>
</linearGradient>
<linearGradient id="paint1_linear_3651_365" x1="205.924" y1="282.864" x2="357.197" y2="242.387" gradientUnits="userSpaceOnUse">
<stop stop-color="#272425"/>
<stop offset="1" stop-color="#272425" stop-opacity="0"/>
</linearGradient>
</defs>
</svg>
