<svg width="621" height="649" viewBox="0 0 621 649" fill="none" xmlns="http://www.w3.org/2000/svg">
<path d="M496 185C496 287.175 413.175 370 311 370C208.825 370 126 287.175 126 185C126 82.8248 208.825 0 311 0C413.175 0 496 82.8248 496 185Z" fill="url(#paint0_linear_3651_387)"/>
<path d="M233.641 244.616L400.026 200.094L456.927 246.072L212.773 311.4L233.641 244.616Z" fill="white"/>
<path d="M233.641 244.616L400.026 200.094L456.927 246.072L212.773 311.4L233.641 244.616Z" fill="url(#paint1_linear_3651_387)"/>
<path d="M270.641 39.9453L212.773 311.401L279.756 293.476L303.994 164.612L270.641 39.9453Z" fill="white"/>
<path d="M457.456 247.896L378.569 160.72L270.648 39.9453L273.513 118.404L304.002 164.612L375.52 248.019L390.351 265.852L457.456 247.896Z" fill="white"/>
<path d="M565.021 648.155C554.768 648.155 545.256 646.421 536.485 642.955C527.837 639.355 520.301 634.288 513.878 627.755C507.577 621.221 502.636 613.555 499.053 604.755C495.471 595.821 493.68 586.021 493.68 575.355C493.68 564.688 495.471 554.955 499.053 546.155C502.636 537.221 507.577 529.488 513.878 522.955C520.301 516.421 527.837 511.421 536.485 507.955C545.256 504.355 554.768 502.555 565.021 502.555C577.004 502.555 587.69 504.821 597.079 509.355C606.591 513.888 614.497 520.421 620.797 528.955L597.449 551.755C593.249 546.421 588.616 542.355 583.551 539.555C578.61 536.755 573.051 535.355 566.874 535.355C561.562 535.355 556.683 536.288 552.235 538.155C547.788 540.021 543.958 542.755 540.747 546.355C537.658 549.821 535.187 554.021 533.334 558.955C531.605 563.888 530.74 569.355 530.74 575.355C530.74 581.355 531.605 586.821 533.334 591.755C535.187 596.688 537.658 600.955 540.747 604.555C543.958 608.021 547.788 610.688 552.235 612.555C556.683 614.421 561.562 615.355 566.874 615.355C573.051 615.355 578.61 613.955 583.551 611.155C588.616 608.355 593.249 604.288 597.449 598.955L620.797 621.755C614.497 630.155 606.591 636.688 597.079 641.355C587.69 645.888 577.004 648.155 565.021 648.155Z" fill="#464545"/>
<path d="M437.562 645.352V505.352H474.252V645.352H437.562Z" fill="#464545"/>
<path d="M338.241 645.352L282.836 505.352H322.491L369.187 626.552H345.839L393.647 505.352H429.966L374.375 645.352H338.241Z" fill="#464545"/>
<path d="M161.234 645.352V505.352H220.531C232.391 505.352 242.582 507.418 251.106 511.552C259.754 515.685 266.424 521.685 271.119 529.552C275.813 537.285 278.16 546.485 278.16 557.152C278.16 567.685 275.813 576.818 271.119 584.552C266.424 592.152 259.754 598.018 251.106 602.152C242.582 606.152 232.391 608.152 220.531 608.152H181.618L197.924 591.552V645.352H161.234ZM241.47 645.352L209.228 594.352H248.327L280.755 645.352H241.47ZM197.924 595.752L181.618 577.552H218.308C225.967 577.552 231.649 575.752 235.355 572.152C239.185 568.552 241.1 563.552 241.1 557.152C241.1 550.618 239.185 545.552 235.355 541.952C231.649 538.352 225.967 536.552 218.308 536.552H181.618L197.924 518.352V595.752Z" fill="#464545"/>
<path d="M0 645.352L57.2585 505.352H93.3925L150.836 645.352H112.664L67.8208 524.752H82.2743L37.4311 645.352H0ZM31.3161 618.152L40.7666 588.952H104.14L113.59 618.152H31.3161Z" fill="#464545"/>
<path d="M501.991 465.352V424.052H485.867V416.352H527.15V424.052H511.026V465.352H501.991Z" fill="#464545"/>
<path d="M457.422 465.352V416.352H466.457V465.352H457.422Z" fill="#464545"/>
<path d="M378.907 465.7C375.293 465.7 371.934 465.093 368.83 463.88C365.772 462.62 363.084 460.87 360.768 458.63C358.498 456.343 356.737 453.707 355.486 450.72C354.235 447.687 353.609 444.397 353.609 440.85C353.609 437.303 354.235 434.037 355.486 431.05C356.737 428.017 358.498 425.38 360.768 423.14C363.084 420.853 365.772 419.103 368.83 417.89C371.934 416.63 375.293 416 378.907 416C382.521 416 385.857 416.63 388.915 417.89C392.02 419.103 394.707 420.83 396.977 423.07C399.247 425.31 401.008 427.947 402.259 430.98C403.556 433.967 404.205 437.257 404.205 440.85C404.205 444.443 403.556 447.757 402.259 450.79C401.008 453.777 399.247 456.39 396.977 458.63C394.707 460.87 392.02 462.62 388.915 463.88C385.857 465.093 382.521 465.7 378.907 465.7ZM378.907 462.41C382.012 462.41 384.884 461.873 387.525 460.8C390.166 459.727 392.46 458.21 394.406 456.25C396.352 454.29 397.857 452.003 398.923 449.39C400.035 446.777 400.591 443.93 400.591 440.85C400.591 437.723 400.035 434.877 398.923 432.31C397.857 429.697 396.352 427.41 394.406 425.45C392.46 423.49 390.166 421.973 387.525 420.9C384.884 419.827 382.012 419.29 378.907 419.29C375.803 419.29 372.93 419.827 370.289 420.9C367.648 421.973 365.332 423.49 363.339 425.45C361.393 427.41 359.864 429.697 358.752 432.31C357.687 434.877 357.154 437.723 357.154 440.85C357.154 443.93 357.687 446.777 358.752 449.39C359.864 452.003 361.393 454.29 363.339 456.25C365.332 458.21 367.648 459.727 370.289 460.8C372.93 461.873 375.803 462.41 378.907 462.41Z" fill="#464545"/>
<path d="M296.07 465.352V416.352H313.515C317.592 416.352 321.09 417.005 324.009 418.312C326.928 419.618 329.175 421.508 330.751 423.982C332.326 426.408 333.114 429.372 333.114 432.872C333.114 436.278 332.326 439.218 330.751 441.692C329.175 444.165 326.928 446.055 324.009 447.362C321.09 448.668 317.592 449.322 313.515 449.322H298.016L299.615 447.642V465.352H296.07ZM299.615 447.852L298.016 446.102H313.515C318.75 446.102 322.712 444.958 325.399 442.672C328.133 440.338 329.5 437.072 329.5 432.872C329.5 428.625 328.133 425.358 325.399 423.072C322.712 420.738 318.75 419.572 313.515 419.572H298.016L299.615 417.822V447.852Z" fill="#464545"/>
<path d="M247.491 465.702C241.468 465.702 236.719 463.928 233.244 460.382C229.769 456.835 228.031 451.562 228.031 444.562V416.352H231.576V444.422C231.576 450.535 232.966 455.062 235.746 458.002C238.526 460.942 242.464 462.412 247.561 462.412C252.611 462.412 256.526 460.942 259.306 458.002C262.086 455.062 263.476 450.535 263.476 444.422V416.352H267.021V444.562C267.021 451.562 265.283 456.835 261.808 460.382C258.333 463.928 253.561 465.702 247.491 465.702Z" fill="#464545"/>
<path d="M165.922 465.352V416.352H183.366C187.444 416.352 190.942 417.005 193.861 418.312C196.78 419.618 199.027 421.508 200.602 423.982C202.178 426.408 202.965 429.372 202.965 432.872C202.965 436.278 202.178 439.218 200.602 441.692C199.027 444.118 196.78 446.008 193.861 447.362C190.942 448.668 187.444 449.322 183.366 449.322H167.868L169.466 447.642V465.352H165.922ZM199.699 465.352L187.05 447.572H191.081L203.73 465.352H199.699ZM169.466 447.852L167.868 446.172H183.366C188.602 446.172 192.563 445.005 195.251 442.672C197.984 440.338 199.351 437.072 199.351 432.872C199.351 428.625 197.984 425.358 195.251 423.072C192.563 420.738 188.602 419.572 183.366 419.572H167.868L169.466 417.822V447.852Z" fill="#464545"/>
<path d="M120.437 465.7C116.777 465.7 113.394 465.093 110.29 463.88C107.186 462.62 104.475 460.87 102.158 458.63C99.8881 456.39 98.1275 453.777 96.8765 450.79C95.6255 447.757 95 444.443 95 440.85C95 437.257 95.6255 433.967 96.8765 430.98C98.1275 427.947 99.9113 425.31 102.228 423.07C104.545 420.83 107.232 419.103 110.29 417.89C113.394 416.63 116.8 416 120.506 416C124.028 416 127.294 416.56 130.306 417.68C133.317 418.8 135.889 420.48 138.02 422.72L135.796 425.1C133.665 423 131.325 421.507 128.777 420.62C126.275 419.733 123.541 419.29 120.576 419.29C117.425 419.29 114.506 419.827 111.819 420.9C109.132 421.973 106.792 423.49 104.799 425.45C102.807 427.41 101.255 429.697 100.143 432.31C99.0773 434.923 98.5445 437.77 98.5445 440.85C98.5445 443.93 99.0773 446.777 100.143 449.39C101.255 452.003 102.807 454.29 104.799 456.25C106.792 458.21 109.132 459.727 111.819 460.8C114.506 461.873 117.425 462.41 120.576 462.41C123.449 462.41 126.159 461.967 128.707 461.08C131.302 460.193 133.665 458.723 135.796 456.67L137.812 459.4C135.634 461.5 133.016 463.087 129.958 464.16C126.947 465.187 123.773 465.7 120.437 465.7ZM134.406 459.05V441.06H137.812V459.4L134.406 459.05Z" fill="#464545"/>
<defs>
<linearGradient id="paint0_linear_3651_387" x1="126" y1="185" x2="471.609" y2="185" gradientUnits="userSpaceOnUse">
<stop stop-color="#2DC3FD"/>
<stop offset="1" stop-color="#3F57EF"/>
</linearGradient>
<linearGradient id="paint1_linear_3651_387" x1="205.127" y1="282.864" x2="356.4" y2="242.387" gradientUnits="userSpaceOnUse">
<stop stop-color="#272425"/>
<stop offset="1" stop-color="#272425" stop-opacity="0"/>
</linearGradient>
</defs>
</svg>
