<svg width="1017" height="370" viewBox="0 0 1017 370" fill="none" xmlns="http://www.w3.org/2000/svg">
<path d="M370 185C370 287.175 287.175 370 185 370C82.8248 370 0 287.175 0 185C0 82.8248 82.8248 0 185 0C287.175 0 370 82.8248 370 185Z" fill="url(#paint0_linear_3651_409)"/>
<path d="M107.641 244.616L274.026 200.094L330.927 246.072L86.7734 311.4L107.641 244.616Z" fill="white"/>
<path d="M107.641 244.616L274.026 200.094L330.927 246.072L86.7734 311.4L107.641 244.616Z" fill="url(#paint1_linear_3651_409)"/>
<path d="M144.641 39.9453L86.7734 311.401L153.756 293.476L177.994 164.612L144.641 39.9453Z" fill="white"/>
<path d="M331.456 247.896L252.569 160.72L144.648 39.9453L147.513 118.404L178.002 164.612L249.52 248.019L264.351 265.852L331.456 247.896Z" fill="white"/>
<path d="M961.224 301.155C950.971 301.155 941.459 299.421 932.688 295.955C924.04 292.355 916.505 287.288 910.081 280.755C903.78 274.221 898.839 266.555 895.257 257.755C891.674 248.821 889.883 239.021 889.883 228.355C889.883 217.688 891.674 207.955 895.257 199.155C898.839 190.221 903.78 182.488 910.081 175.955C916.505 169.421 924.04 164.421 932.688 160.955C941.459 157.355 950.971 155.555 961.224 155.555C973.207 155.555 983.893 157.821 993.282 162.355C1002.79 166.888 1010.7 173.421 1017 181.955L993.652 204.755C989.452 199.421 984.819 195.355 979.755 192.555C974.813 189.755 969.254 188.355 963.077 188.355C957.765 188.355 952.886 189.288 948.438 191.155C943.991 193.021 940.162 195.755 936.95 199.355C933.861 202.821 931.391 207.021 929.538 211.955C927.808 216.888 926.943 222.355 926.943 228.355C926.943 234.355 927.808 239.821 929.538 244.755C931.391 249.688 933.861 253.955 936.95 257.555C940.162 261.021 943.991 263.688 948.438 265.555C952.886 267.421 957.765 268.355 963.077 268.355C969.254 268.355 974.813 266.955 979.755 264.155C984.819 261.355 989.452 257.288 993.652 251.955L1017 274.755C1010.7 283.155 1002.79 289.688 993.282 294.355C983.893 298.888 973.207 301.155 961.224 301.155Z" fill="black"/>
<path d="M833.766 298.352V158.352H870.456V298.352H833.766Z" fill="black"/>
<path d="M734.445 298.352L679.039 158.352H718.694L765.39 279.552H742.042L789.85 158.352H826.169L770.579 298.352H734.445Z" fill="black"/>
<path d="M557.438 298.352V158.352H616.734C628.594 158.352 638.785 160.418 647.309 164.552C655.957 168.685 662.628 174.685 667.322 182.552C672.016 190.285 674.363 199.485 674.363 210.152C674.363 220.685 672.016 229.818 667.322 237.552C662.628 245.152 655.957 251.018 647.309 255.152C638.785 259.152 628.594 261.152 616.734 261.152H577.821L594.127 244.552V298.352H557.438ZM637.674 298.352L605.431 247.352H644.53L676.958 298.352H637.674ZM594.127 248.752L577.821 230.552H614.511C622.17 230.552 627.852 228.752 631.559 225.152C635.388 221.552 637.303 216.552 637.303 210.152C637.303 203.618 635.388 198.552 631.559 194.952C627.852 191.352 622.17 189.552 614.511 189.552H577.821L594.127 171.352V248.752Z" fill="black"/>
<path d="M396.203 298.352L453.462 158.352H489.596L547.039 298.352H508.867L464.024 177.752H478.477L433.634 298.352H396.203ZM427.519 271.152L436.97 241.952H500.343L509.794 271.152H427.519Z" fill="black"/>
<path d="M847.843 118.352V77.0516H831.719V69.3516H873.002V77.0516H856.878V118.352H847.843Z" fill="black"/>
<path d="M803.273 118.352V69.3516H812.308V118.352H803.273Z" fill="black"/>
<path d="M724.759 118.7C721.145 118.7 717.786 118.093 714.681 116.88C711.623 115.62 708.936 113.87 706.619 111.63C704.349 109.343 702.588 106.707 701.337 103.72C700.086 100.687 699.461 97.3967 699.461 93.85C699.461 90.3033 700.086 87.0367 701.337 84.05C702.588 81.0167 704.349 78.38 706.619 76.14C708.936 73.8533 711.623 72.1033 714.681 70.89C717.786 69.63 721.145 69 724.759 69C728.373 69 731.709 69.63 734.767 70.89C737.871 72.1033 740.558 73.83 742.829 76.07C745.099 78.31 746.86 80.9467 748.111 83.98C749.408 86.9667 750.057 90.2567 750.057 93.85C750.057 97.4433 749.408 100.757 748.111 103.79C746.86 106.777 745.099 109.39 742.829 111.63C740.558 113.87 737.871 115.62 734.767 116.88C731.709 118.093 728.373 118.7 724.759 118.7ZM724.759 115.41C727.863 115.41 730.736 114.873 733.377 113.8C736.018 112.727 738.311 111.21 740.257 109.25C742.203 107.29 743.709 105.003 744.775 102.39C745.887 99.7767 746.443 96.93 746.443 93.85C746.443 90.7233 745.887 87.8767 744.775 85.31C743.709 82.6967 742.203 80.41 740.257 78.45C738.311 76.49 736.018 74.9733 733.377 73.9C730.736 72.8267 727.863 72.29 724.759 72.29C721.654 72.29 718.782 72.8267 716.141 73.9C713.5 74.9733 711.183 76.49 709.191 78.45C707.245 80.41 705.716 82.6967 704.604 85.31C703.538 87.8767 703.005 90.7233 703.005 93.85C703.005 96.93 703.538 99.7767 704.604 102.39C705.716 105.003 707.245 107.29 709.191 109.25C711.183 111.21 713.5 112.727 716.141 113.8C718.782 114.873 721.654 115.41 724.759 115.41Z" fill="black"/>
<path d="M641.922 118.352V69.3516H659.366C663.444 69.3516 666.942 70.0049 669.861 71.3116C672.78 72.6182 675.027 74.5082 676.602 76.9816C678.178 79.4082 678.965 82.3716 678.965 85.8716C678.965 89.2782 678.178 92.2182 676.602 94.6916C675.027 97.1649 672.78 99.0549 669.861 100.362C666.942 101.668 663.444 102.322 659.366 102.322H643.868L645.466 100.642V118.352H641.922ZM645.466 100.852L643.868 99.1016H659.366C664.602 99.1016 668.563 97.9582 671.251 95.6716C673.984 93.3382 675.351 90.0716 675.351 85.8716C675.351 81.6249 673.984 78.3582 671.251 76.0716C668.563 73.7382 664.602 72.5716 659.366 72.5716H643.868L645.466 70.8216V100.852Z" fill="black"/>
<path d="M593.343 118.702C587.319 118.702 582.57 116.928 579.095 113.382C575.62 109.835 573.883 104.562 573.883 97.5616V69.3516H577.427V97.4216C577.427 103.535 578.817 108.062 581.597 111.002C584.377 113.942 588.316 115.412 593.412 115.412C598.463 115.412 602.378 113.942 605.158 111.002C607.938 108.062 609.328 103.535 609.328 97.4216V69.3516H612.872V97.5616C612.872 104.562 611.135 109.835 607.66 113.382C604.185 116.928 599.412 118.702 593.343 118.702Z" fill="black"/>
<path d="M511.773 118.352V69.3516H529.218C533.295 69.3516 536.793 70.0049 539.712 71.3116C542.631 72.6182 544.878 74.5082 546.454 76.9816C548.029 79.4082 548.817 82.3716 548.817 85.8716C548.817 89.2782 548.029 92.2182 546.454 94.6916C544.878 97.1182 542.631 99.0082 539.712 100.362C536.793 101.668 533.295 102.322 529.218 102.322H513.719L515.318 100.642V118.352H511.773ZM545.55 118.352L532.901 100.572H536.932L549.581 118.352H545.55ZM515.318 100.852L513.719 99.1716H529.218C534.453 99.1716 538.415 98.0049 541.102 95.6716C543.836 93.3382 545.203 90.0716 545.203 85.8716C545.203 81.6249 543.836 78.3582 541.102 76.0716C538.415 73.7382 534.453 72.5716 529.218 72.5716H513.719L515.318 70.8216V100.852Z" fill="black"/>
<path d="M466.288 118.7C462.628 118.7 459.246 118.093 456.141 116.88C453.037 115.62 450.327 113.87 448.01 111.63C445.74 109.39 443.979 106.777 442.728 103.79C441.477 100.757 440.852 97.4433 440.852 93.85C440.852 90.2567 441.477 86.9667 442.728 83.98C443.979 80.9467 445.763 78.31 448.08 76.07C450.396 73.83 453.083 72.1033 456.141 70.89C459.246 69.63 462.651 69 466.358 69C469.879 69 473.146 69.56 476.157 70.68C479.169 71.8 481.741 73.48 483.872 75.72L481.648 78.1C479.517 76 477.177 74.5067 474.628 73.62C472.126 72.7333 469.393 72.29 466.427 72.29C463.277 72.29 460.358 72.8267 457.67 73.9C454.983 74.9733 452.643 76.49 450.651 78.45C448.659 80.41 447.107 82.6967 445.995 85.31C444.929 87.9233 444.396 90.77 444.396 93.85C444.396 96.93 444.929 99.7767 445.995 102.39C447.107 105.003 448.659 107.29 450.651 109.25C452.643 111.21 454.983 112.727 457.67 113.8C460.358 114.873 463.277 115.41 466.427 115.41C469.3 115.41 472.011 114.967 474.559 114.08C477.154 113.193 479.517 111.723 481.648 109.67L483.663 112.4C481.486 114.5 478.868 116.087 475.81 117.16C472.798 118.187 469.624 118.7 466.288 118.7ZM480.258 112.05V94.06H483.663V112.4L480.258 112.05Z" fill="black"/>
<defs>
<linearGradient id="paint0_linear_3651_409" x1="0" y1="185" x2="345.609" y2="185" gradientUnits="userSpaceOnUse">
<stop stop-color="#2DC3FD"/>
<stop offset="1" stop-color="#3F57EF"/>
</linearGradient>
<linearGradient id="paint1_linear_3651_409" x1="79.127" y1="282.864" x2="230.4" y2="242.387" gradientUnits="userSpaceOnUse">
<stop stop-color="#272425"/>
<stop offset="1" stop-color="#272425" stop-opacity="0"/>
</linearGradient>
</defs>
</svg>
