<svg width="622" height="649" viewBox="0 0 622 649" fill="none" xmlns="http://www.w3.org/2000/svg">
<path d="M496.594 185C496.594 287.175 413.769 370 311.594 370C209.419 370 126.594 287.175 126.594 185C126.594 82.8248 209.419 0 311.594 0C413.769 0 496.594 82.8248 496.594 185Z" fill="url(#paint0_linear_2451_2389)"/>
<path d="M234.234 244.616L400.619 200.094L457.521 246.072L213.367 311.4L234.234 244.616Z" fill="white"/>
<path d="M234.234 244.616L400.619 200.094L457.521 246.072L213.367 311.4L234.234 244.616Z" fill="url(#paint1_linear_2451_2389)"/>
<path d="M271.234 39.9453L213.367 311.401L280.35 293.476L304.588 164.612L271.234 39.9453Z" fill="white"/>
<path d="M458.05 247.896L379.163 160.72L271.242 39.9453L274.107 118.404L304.596 164.612L376.114 248.019L390.944 265.852L458.05 247.896Z" fill="white"/>
<path d="M565.615 648.155C555.362 648.155 545.849 646.421 537.078 642.955C528.431 639.355 520.895 634.288 514.471 627.755C508.171 621.221 503.23 613.555 499.647 604.755C496.065 595.821 494.273 586.021 494.273 575.355C494.273 564.688 496.065 554.955 499.647 546.155C503.23 537.221 508.171 529.488 514.471 522.955C520.895 516.421 528.431 511.421 537.078 507.955C545.849 504.355 555.362 502.555 565.615 502.555C577.598 502.555 588.284 504.821 597.672 509.355C607.185 513.888 615.091 520.421 621.391 528.955L598.043 551.755C593.843 546.421 589.21 542.355 584.145 539.555C579.204 536.755 573.645 535.355 567.468 535.355C562.156 535.355 557.276 536.288 552.829 538.155C548.382 540.021 544.552 542.755 541.34 546.355C538.252 549.821 535.781 554.021 533.928 558.955C532.199 563.888 531.334 569.355 531.334 575.355C531.334 581.355 532.199 586.821 533.928 591.755C535.781 596.688 538.252 600.955 541.34 604.555C544.552 608.021 548.382 610.688 552.829 612.555C557.276 614.421 562.156 615.355 567.468 615.355C573.645 615.355 579.204 613.955 584.145 611.155C589.21 608.355 593.843 604.288 598.043 598.955L621.391 621.755C615.091 630.155 607.185 636.688 597.672 641.355C588.284 645.888 577.598 648.155 565.615 648.155Z" fill="white"/>
<path d="M438.156 645.352V505.352H474.846V645.352H438.156Z" fill="white"/>
<path d="M338.835 645.352L283.43 505.352H323.084L369.781 626.552H346.433L394.241 505.352H430.56L374.969 645.352H338.835Z" fill="white"/>
<path d="M161.828 645.352V505.352H221.125C232.984 505.352 243.176 507.418 251.7 511.552C260.347 515.685 267.018 521.685 271.713 529.552C276.407 537.285 278.754 546.485 278.754 557.152C278.754 567.685 276.407 576.818 271.713 584.552C267.018 592.152 260.347 598.018 251.7 602.152C243.176 606.152 232.984 608.152 221.125 608.152H182.211L198.518 591.552V645.352H161.828ZM242.064 645.352L209.821 594.352H248.92L281.348 645.352H242.064ZM198.518 595.752L182.211 577.552H218.901C226.56 577.552 232.243 575.752 235.949 572.152C239.779 568.552 241.694 563.552 241.694 557.152C241.694 550.618 239.779 545.552 235.949 541.952C232.243 538.352 226.56 536.552 218.901 536.552H182.211L198.518 518.352V595.752Z" fill="white"/>
<path d="M0.59375 645.352L57.8522 505.352H93.9862L151.43 645.352H113.258L68.4145 524.752H82.8681L38.0249 645.352H0.59375ZM31.9099 618.152L41.3603 588.952H104.734L114.184 618.152H31.9099Z" fill="white"/>
<path d="M502.585 465.352V424.052H486.461V416.352H527.744V424.052H511.62V465.352H502.585Z" fill="white"/>
<path d="M458.016 465.352V416.352H467.051V465.352H458.016Z" fill="white"/>
<path d="M379.501 465.7C375.887 465.7 372.528 465.093 369.424 463.88C366.366 462.62 363.678 460.87 361.362 458.63C359.091 456.343 357.331 453.707 356.08 450.72C354.829 447.687 354.203 444.397 354.203 440.85C354.203 437.303 354.829 434.037 356.08 431.05C357.331 428.017 359.091 425.38 361.362 423.14C363.678 420.853 366.366 419.103 369.424 417.89C372.528 416.63 375.887 416 379.501 416C383.115 416 386.451 416.63 389.509 417.89C392.613 419.103 395.301 420.83 397.571 423.07C399.841 425.31 401.602 427.947 402.853 430.98C404.15 433.967 404.799 437.257 404.799 440.85C404.799 444.443 404.15 447.757 402.853 450.79C401.602 453.777 399.841 456.39 397.571 458.63C395.301 460.87 392.613 462.62 389.509 463.88C386.451 465.093 383.115 465.7 379.501 465.7ZM379.501 462.41C382.605 462.41 385.478 461.873 388.119 460.8C390.76 459.727 393.053 458.21 394.999 456.25C396.945 454.29 398.451 452.003 399.517 449.39C400.629 446.777 401.185 443.93 401.185 440.85C401.185 437.723 400.629 434.877 399.517 432.31C398.451 429.697 396.945 427.41 394.999 425.45C393.053 423.49 390.76 421.973 388.119 420.9C385.478 419.827 382.605 419.29 379.501 419.29C376.397 419.29 373.524 419.827 370.883 420.9C368.242 421.973 365.925 423.49 363.933 425.45C361.987 427.41 360.458 429.697 359.346 432.31C358.28 434.877 357.748 437.723 357.748 440.85C357.748 443.93 358.28 446.777 359.346 449.39C360.458 452.003 361.987 454.29 363.933 456.25C365.925 458.21 368.242 459.727 370.883 460.8C373.524 461.873 376.397 462.41 379.501 462.41Z" fill="white"/>
<path d="M296.664 465.352V416.352H314.108C318.186 416.352 321.684 417.005 324.603 418.312C327.522 419.618 329.769 421.508 331.344 423.982C332.92 426.408 333.707 429.372 333.707 432.872C333.707 436.278 332.92 439.218 331.344 441.692C329.769 444.165 327.522 446.055 324.603 447.362C321.684 448.668 318.186 449.322 314.108 449.322H298.61L300.209 447.642V465.352H296.664ZM300.209 447.852L298.61 446.102H314.108C319.344 446.102 323.306 444.958 325.993 442.672C328.727 440.338 330.093 437.072 330.093 432.872C330.093 428.625 328.727 425.358 325.993 423.072C323.306 420.738 319.344 419.572 314.108 419.572H298.61L300.209 417.822V447.852Z" fill="white"/>
<path d="M248.085 465.702C242.062 465.702 237.312 463.928 233.837 460.382C230.362 456.835 228.625 451.562 228.625 444.562V416.352H232.169V444.422C232.169 450.535 233.559 455.062 236.339 458.002C239.119 460.942 243.058 462.412 248.154 462.412C253.205 462.412 257.12 460.942 259.9 458.002C262.68 455.062 264.07 450.535 264.07 444.422V416.352H267.614V444.562C267.614 451.562 265.877 456.835 262.402 460.382C258.927 463.928 254.155 465.702 248.085 465.702Z" fill="white"/>
<path d="M166.516 465.352V416.352H183.96C188.037 416.352 191.535 417.005 194.454 418.312C197.373 419.618 199.621 421.508 201.196 423.982C202.771 426.408 203.559 429.372 203.559 432.872C203.559 436.278 202.771 439.218 201.196 441.692C199.621 444.118 197.373 446.008 194.454 447.362C191.535 448.668 188.037 449.322 183.96 449.322H168.462L170.06 447.642V465.352H166.516ZM200.292 465.352L187.644 447.572H191.674L204.323 465.352H200.292ZM170.06 447.852L168.462 446.172H183.96C189.196 446.172 193.157 445.005 195.844 442.672C198.578 440.338 199.945 437.072 199.945 432.872C199.945 428.625 198.578 425.358 195.844 423.072C193.157 420.738 189.196 419.572 183.96 419.572H168.462L170.06 417.822V447.852Z" fill="white"/>
<path d="M121.031 465.7C117.37 465.7 113.988 465.093 110.884 463.88C107.779 462.62 105.069 460.87 102.752 458.63C100.482 456.39 98.7212 453.777 97.4702 450.79C96.2192 447.757 95.5938 444.443 95.5938 440.85C95.5938 437.257 96.2192 433.967 97.4702 430.98C98.7212 427.947 100.505 425.31 102.822 423.07C105.138 420.83 107.826 419.103 110.884 417.89C113.988 416.63 117.393 416 121.1 416C124.621 416 127.888 416.56 130.9 417.68C133.911 418.8 136.483 420.48 138.614 422.72L136.39 425.1C134.259 423 131.919 421.507 129.371 420.62C126.869 419.733 124.135 419.29 121.17 419.29C118.019 419.29 115.1 419.827 112.413 420.9C109.725 421.973 107.386 423.49 105.393 425.45C103.401 427.41 101.849 429.697 100.737 432.31C99.6711 434.923 99.1382 437.77 99.1382 440.85C99.1382 443.93 99.6711 446.777 100.737 449.39C101.849 452.003 103.401 454.29 105.393 456.25C107.386 458.21 109.725 459.727 112.413 460.8C115.1 461.873 118.019 462.41 121.17 462.41C124.042 462.41 126.753 461.967 129.301 461.08C131.896 460.193 134.259 458.723 136.39 456.67L138.406 459.4C136.228 461.5 133.61 463.087 130.552 464.16C127.54 465.187 124.367 465.7 121.031 465.7ZM135 459.05V441.06H138.406V459.4L135 459.05Z" fill="white"/>
<defs>
<linearGradient id="paint0_linear_2451_2389" x1="126.594" y1="185" x2="472.203" y2="185" gradientUnits="userSpaceOnUse">
<stop stop-color="#2DC3FD"/>
<stop offset="1" stop-color="#3F57EF"/>
</linearGradient>
<linearGradient id="paint1_linear_2451_2389" x1="205.721" y1="282.864" x2="356.994" y2="242.387" gradientUnits="userSpaceOnUse">
<stop stop-color="#272425"/>
<stop offset="1" stop-color="#272425" stop-opacity="0"/>
</linearGradient>
</defs>
</svg>
